<svg xmlns="http://www.w3.org/2000/svg">
  <symbol id="home" viewBox="0 0 24 24"><path d="m3 10 9-7 9 7v10a1 1 0 0 1-1 1h-5v-7H9v7H4a1 1 0 0 1-1-1Z"/></symbol>
  <symbol id="list" viewBox="0 0 24 24"><path d="M9 6h12M9 12h12M9 18h12"/><path d="M4 6h.01M4 12h.01M4 18h.01"/></symbol>
  <symbol id="repeat" viewBox="0 0 24 24"><path d="m17 2 4 4-4 4"/><path d="M3 11V9a3 3 0 0 1 3-3h15M7 22l-4-4 4-4"/><path d="M21 13v2a3 3 0 0 1-3 3H3"/></symbol>
  <symbol id="menu" viewBox="0 0 24 24"><path d="M4 7h16M4 12h16M4 17h16"/></symbol>
  <symbol id="moon" viewBox="0 0 24 24"><path d="M21 12.8A9 9 0 1 1 11.2 3 7 7 0 0 0 21 12.8Z"/></symbol>
  <symbol id="sun" viewBox="0 0 24 24"><circle cx="12" cy="12" r="4"/><path d="M12 2v2M12 20v2M4.93 4.93l1.42 1.42M17.66 17.66l1.41 1.41M2 12h2M20 12h2M4.93 19.07l1.42-1.42M17.66 6.34l1.41-1.41"/></symbol>
  <symbol id="plus" viewBox="0 0 24 24"><path d="M12 5v14M5 12h14"/></symbol>
  <symbol id="wallet" viewBox="0 0 24 24"><path d="M20 7V5a2 2 0 0 0-2-2H5a3 3 0 0 0 0 6h16v10a2 2 0 0 1-2 2H5a3 3 0 0 1-3-3V6"/><path d="M16 14h2"/></symbol>
  <symbol id="user" viewBox="0 0 24 24"><path d="M20 21v-2a4 4 0 0 0-4-4H8a4 4 0 0 0-4 4v2"/><circle cx="12" cy="7" r="4"/></symbol>
  <symbol id="users" viewBox="0 0 24 24"><path d="M16 21v-2a4 4 0 0 0-4-4H6a4 4 0 0 0-4 4v2"/><circle cx="9" cy="7" r="4"/><path d="M22 21v-2a4 4 0 0 0-3-3.87"/><path d="M16 3.13a4 4 0 0 1 0 7.75"/></symbol>
  <symbol id="user-plus" viewBox="0 0 24 24"><path d="M16 21v-2a4 4 0 0 0-4-4H6a4 4 0 0 0-4 4v2"/><circle cx="9" cy="7" r="4"/><path d="M19 8v6M22 11h-6"/></symbol>
  <symbol id="settings" viewBox="0 0 24 24"><circle cx="12" cy="12" r="3"/><path d="M12 2v2M12 20v2M4.93 4.93l1.41 1.41M17.66 17.66l1.41 1.41M2 12h2M20 12h2M4.93 19.07l1.41-1.41M17.66 6.34l1.41-1.41"/></symbol>
  <symbol id="arrow-down" viewBox="0 0 24 24"><path d="M12 3v18M5 14l7 7 7-7"/></symbol>
  <symbol id="arrow-up" viewBox="0 0 24 24"><path d="M12 21V3M5 10l7-7 7 7"/></symbol>
  <symbol id="edit" viewBox="0 0 24 24"><path d="M12 20h9"/><path d="M16.5 3.5a2.12 2.12 0 0 1 3 3L8 18l-4 1 1-4Z"/></symbol>
  <symbol id="trash" viewBox="0 0 24 24"><path d="M3 6h18M8 6V4h8v2M19 6l-1 15H6L5 6M10 11v6M14 11v6"/></symbol>
</svg>
